<svg xmlns="http://www.w3.org/2000/svg" width="268" height="50" viewBox="0 0 3412 390" fill="none">
<path d="M402.815 305V43.1818H511.991C531.594 43.1818 548 45.9517 561.21 51.4915C574.506 57.0312 584.477 64.7869 591.125 74.7585C597.858 84.7301 601.224 96.2784 601.224 109.403C601.224 119.375 599.136 128.281 594.96 136.122C590.784 143.878 585.031 150.312 577.702 155.426C570.372 160.54 561.892 164.119 552.261 166.165V168.722C562.83 169.233 572.588 172.088 581.537 177.287C590.571 182.486 597.815 189.73 603.27 199.02C608.724 208.224 611.452 219.134 611.452 231.747C611.452 245.81 607.872 258.381 600.713 269.46C593.554 280.455 583.199 289.148 569.648 295.54C556.097 301.847 539.648 305 520.301 305H402.815ZM466.097 253.991H505.216C518.938 253.991 529.037 251.392 535.514 246.193C542.077 240.994 545.358 233.75 545.358 224.46C545.358 217.727 543.781 211.932 540.628 207.074C537.474 202.131 533 198.338 527.205 195.696C521.409 192.969 514.463 191.605 506.366 191.605H466.097V253.991ZM466.097 150.824H501.125C508.028 150.824 514.165 149.673 519.534 147.372C524.903 145.071 529.08 141.747 532.062 137.401C535.131 133.054 536.665 127.812 536.665 121.676C536.665 112.898 533.554 105.994 527.332 100.966C521.111 95.9375 512.716 93.4233 502.148 93.4233H466.097V150.824ZM641.728 305V108.636H704.242V305H641.728ZM673.049 85.7528C664.27 85.7528 656.728 82.8551 650.421 77.0597C644.114 71.179 640.961 64.1051 640.961 55.8381C640.961 47.6562 644.114 40.6676 650.421 34.8722C656.728 28.9915 664.27 26.0511 673.049 26.0511C681.913 26.0511 689.455 28.9915 695.677 34.8722C701.984 40.6676 705.137 47.6562 705.137 55.8381C705.137 64.1051 701.984 71.179 695.677 77.0597C689.455 82.8551 681.913 85.7528 673.049 85.7528ZM854.721 108.636V154.659H730.843V108.636H854.721ZM756.794 61.5909H819.309V243.253C819.309 247.088 819.905 250.199 821.098 252.585C822.377 254.886 824.209 256.548 826.596 257.571C828.982 258.509 831.837 258.977 835.161 258.977C837.547 258.977 840.062 258.764 842.704 258.338C845.431 257.827 847.476 257.401 848.84 257.06L858.3 302.188C855.317 303.04 851.098 304.105 845.644 305.384C840.275 306.662 833.84 307.472 826.34 307.812C811.681 308.494 799.11 306.79 788.627 302.699C778.229 298.523 770.26 292.045 764.721 283.267C759.266 274.489 756.624 263.452 756.794 250.156V61.5909ZM976.019 308.707C955.309 308.707 937.539 304.446 922.71 295.923C907.965 287.401 896.63 275.554 888.704 260.384C880.778 245.128 876.815 227.486 876.815 207.457C876.815 187.344 880.778 169.702 888.704 154.531C896.715 139.276 908.093 127.386 922.838 118.864C937.667 110.341 955.352 106.08 975.892 106.08C994.045 106.08 1009.85 109.361 1023.32 115.923C1036.87 122.486 1047.44 131.776 1055.03 143.793C1062.7 155.724 1066.74 169.744 1067.17 185.852H1008.75C1007.55 175.795 1004.14 167.912 998.519 162.202C992.98 156.491 985.735 153.636 976.786 153.636C969.542 153.636 963.193 155.682 957.738 159.773C952.284 163.778 948.022 169.744 944.954 177.67C941.971 185.511 940.48 195.227 940.48 206.818C940.48 218.409 941.971 228.21 944.954 236.222C948.022 244.148 952.284 250.156 957.738 254.247C963.193 258.253 969.542 260.256 976.786 260.256C982.582 260.256 987.696 259.02 992.127 256.548C996.644 254.077 1000.35 250.455 1003.25 245.682C1006.15 240.824 1007.98 234.943 1008.75 228.04H1067.17C1066.57 244.233 1062.53 258.381 1055.03 270.483C1047.61 282.585 1037.17 292.003 1023.7 298.736C1010.32 305.384 994.429 308.707 976.019 308.707ZM1190.67 308.707C1170.05 308.707 1152.32 304.489 1137.49 296.051C1122.75 287.528 1111.37 275.682 1103.36 260.511C1095.43 245.256 1091.47 227.571 1091.47 207.457C1091.47 187.259 1095.43 169.574 1103.36 154.403C1111.37 139.148 1122.75 127.301 1137.49 118.864C1152.32 110.341 1170.05 106.08 1190.67 106.08C1211.3 106.08 1228.98 110.341 1243.73 118.864C1258.56 127.301 1269.94 139.148 1277.86 154.403C1285.87 169.574 1289.88 187.259 1289.88 207.457C1289.88 227.571 1285.87 245.256 1277.86 260.511C1269.94 275.682 1258.56 287.528 1243.73 296.051C1228.98 304.489 1211.3 308.707 1190.67 308.707ZM1191.06 261.534C1198.56 261.534 1204.91 259.233 1210.11 254.631C1215.3 250.028 1219.27 243.636 1222 235.455C1224.81 227.273 1226.21 217.812 1226.21 207.074C1226.21 196.165 1224.81 186.619 1222 178.438C1219.27 170.256 1215.3 163.864 1210.11 159.261C1204.91 154.659 1198.56 152.358 1191.06 152.358C1183.3 152.358 1176.74 154.659 1171.37 159.261C1166.09 163.864 1162.04 170.256 1159.23 178.438C1156.5 186.619 1155.13 196.165 1155.13 207.074C1155.13 217.812 1156.5 227.273 1159.23 235.455C1162.04 243.636 1166.09 250.028 1171.37 254.631C1176.74 259.233 1183.3 261.534 1191.06 261.534ZM1321.75 305V108.636H1384.27V305H1321.75ZM1353.07 85.7528C1344.3 85.7528 1336.75 82.8551 1330.45 77.0597C1324.14 71.179 1320.99 64.1051 1320.99 55.8381C1320.99 47.6562 1324.14 40.6676 1330.45 34.8722C1336.75 28.9915 1344.3 26.0511 1353.07 26.0511C1361.94 26.0511 1369.48 28.9915 1375.7 34.8722C1382.01 40.6676 1385.16 47.6562 1385.16 55.8381C1385.16 64.1051 1382.01 71.179 1375.7 77.0597C1369.48 82.8551 1361.94 85.7528 1353.07 85.7528ZM1486.42 193.011V305H1423.91V108.636H1483.35V144.688H1485.53C1489.87 132.67 1497.29 123.253 1507.77 116.435C1518.25 109.531 1530.74 106.08 1545.23 106.08C1559.04 106.08 1571.01 109.19 1581.15 115.412C1591.38 121.548 1599.31 130.156 1604.93 141.236C1610.64 152.23 1613.45 165.099 1613.37 179.844V305H1550.85V192.116C1550.94 181.207 1548.17 172.685 1542.54 166.548C1537 160.412 1529.29 157.344 1519.4 157.344C1512.84 157.344 1507.05 158.793 1502.02 161.69C1497.08 164.503 1493.24 168.551 1490.51 173.835C1487.87 179.119 1486.51 185.511 1486.42 193.011ZM1708.56 305H1640.54L1728.88 43.1818H1813.13L1901.47 305H1833.46L1771.96 109.148H1769.92L1708.56 305ZM1699.48 201.96H1841.64V250.028H1699.48V201.96ZM1929.51 305V108.636H1990.23V144.432H1992.28C1995.86 131.477 2001.69 121.847 2009.79 115.54C2017.89 109.148 2027.3 105.952 2038.04 105.952C2040.94 105.952 2043.92 106.165 2046.99 106.591C2050.06 106.932 2052.92 107.486 2055.56 108.253V162.585C2052.57 161.562 2048.65 160.753 2043.8 160.156C2039.02 159.56 2034.76 159.261 2031.01 159.261C2023.6 159.261 2016.91 160.923 2010.94 164.247C2005.06 167.486 2000.42 172.045 1997.01 177.926C1993.68 183.722 1992.02 190.54 1992.02 198.381V305H1929.51ZM2128.85 308.324C2116.32 308.324 2105.2 306.236 2095.49 302.06C2085.85 297.798 2078.23 291.406 2072.6 282.884C2067.06 274.276 2064.29 263.494 2064.29 250.54C2064.29 239.631 2066.21 230.426 2070.04 222.926C2073.88 215.426 2079.16 209.332 2085.9 204.645C2092.63 199.957 2100.39 196.42 2109.16 194.034C2117.94 191.562 2127.32 189.901 2137.29 189.048C2148.45 188.026 2157.45 186.96 2164.26 185.852C2171.08 184.659 2176.03 182.997 2179.09 180.866C2182.25 178.651 2183.82 175.54 2183.82 171.534V170.895C2183.82 164.332 2181.56 159.261 2177.05 155.682C2172.53 152.102 2166.44 150.312 2158.77 150.312C2150.5 150.312 2143.85 152.102 2138.82 155.682C2133.79 159.261 2130.6 164.205 2129.24 170.511L2071.58 168.466C2073.28 156.534 2077.67 145.881 2084.75 136.506C2091.91 127.045 2101.71 119.631 2114.15 114.261C2126.68 108.807 2141.72 106.08 2159.28 106.08C2171.81 106.08 2183.35 107.571 2193.92 110.554C2204.49 113.452 2213.7 117.713 2221.54 123.338C2229.38 128.878 2235.43 135.696 2239.69 143.793C2244.04 151.889 2246.21 161.136 2246.21 171.534V305H2187.4V277.642H2185.87C2182.37 284.29 2177.9 289.915 2172.45 294.517C2167.08 299.119 2160.73 302.571 2153.4 304.872C2146.15 307.173 2137.97 308.324 2128.85 308.324ZM2148.16 267.415C2154.89 267.415 2160.94 266.051 2166.31 263.324C2171.76 260.597 2176.11 256.847 2179.35 252.074C2182.59 247.216 2184.21 241.591 2184.21 235.199V216.534C2182.42 217.472 2180.24 218.324 2177.69 219.091C2175.22 219.858 2172.49 220.582 2169.51 221.264C2166.52 221.946 2163.45 222.543 2160.3 223.054C2157.15 223.565 2154.12 224.034 2151.22 224.46C2145.34 225.398 2140.31 226.847 2136.14 228.807C2132.05 230.767 2128.89 233.324 2126.68 236.477C2124.55 239.545 2123.48 243.21 2123.48 247.472C2123.48 253.949 2125.78 258.892 2130.39 262.301C2135.07 265.71 2141 267.415 2148.16 267.415ZM2455.72 168.594L2398.32 170.128C2397.72 166.037 2396.1 162.415 2393.46 159.261C2390.82 156.023 2387.37 153.509 2383.11 151.719C2378.93 149.844 2374.07 148.906 2368.53 148.906C2361.29 148.906 2355.11 150.355 2349.99 153.253C2344.97 156.151 2342.49 160.071 2342.58 165.014C2342.49 168.849 2344.03 172.173 2347.18 174.986C2350.42 177.798 2356.17 180.057 2364.44 181.761L2402.28 188.92C2421.88 192.67 2436.46 198.892 2446 207.585C2455.63 216.278 2460.49 227.784 2460.58 242.102C2460.49 255.568 2456.49 267.287 2448.56 277.259C2440.72 287.23 2429.98 294.986 2416.34 300.526C2402.71 305.98 2387.11 308.707 2369.55 308.707C2341.51 308.707 2319.4 302.955 2303.2 291.449C2287.1 279.858 2277.89 264.347 2275.59 244.915L2337.34 243.381C2338.7 250.54 2342.24 255.994 2347.95 259.744C2353.66 263.494 2360.95 265.369 2369.81 265.369C2377.82 265.369 2384.34 263.878 2389.37 260.895C2394.4 257.912 2396.95 253.949 2397.04 249.006C2396.95 244.574 2394.99 241.037 2391.16 238.395C2387.32 235.668 2381.32 233.537 2373.13 232.003L2338.87 225.483C2319.18 221.903 2304.53 215.298 2294.89 205.668C2285.26 195.952 2280.49 183.594 2280.58 168.594C2280.49 155.469 2283.99 144.261 2291.06 134.972C2298.13 125.597 2308.19 118.438 2321.23 113.494C2334.27 108.551 2349.65 106.08 2367.38 106.08C2393.97 106.08 2414.94 111.662 2430.28 122.827C2445.62 133.906 2454.1 149.162 2455.72 168.594ZM2357.54 303.977H2382.59L2380.55 315.483C2389.92 316.847 2397.42 320.213 2403.05 325.582C2408.67 331.037 2411.53 338.111 2411.61 346.804C2411.7 360.099 2405.35 370.582 2392.57 378.253C2379.87 386.009 2362.18 389.886 2339.51 389.886L2339.26 364.19C2350.93 364.19 2359.97 362.869 2366.36 360.227C2372.75 357.585 2376.07 353.58 2376.33 348.21C2376.59 343.267 2374.67 339.304 2370.58 336.321C2366.49 333.423 2360.14 331.42 2351.53 330.312L2357.54 303.977ZM2602.04 108.636V154.659H2478.16V108.636H2602.04ZM2504.12 61.5909H2566.63V243.253C2566.63 247.088 2567.23 250.199 2568.42 252.585C2569.7 254.886 2571.53 256.548 2573.92 257.571C2576.3 258.509 2579.16 258.977 2582.48 258.977C2584.87 258.977 2587.38 258.764 2590.03 258.338C2592.75 257.827 2594.8 257.401 2596.16 257.06L2605.62 302.188C2602.64 303.04 2598.42 304.105 2592.97 305.384C2587.6 306.662 2581.16 307.472 2573.66 307.812C2559 308.494 2546.43 306.79 2535.95 302.699C2525.55 298.523 2517.58 292.045 2512.04 283.267C2506.59 274.489 2503.95 263.452 2504.12 250.156V61.5909ZM2633.79 305V108.636H2696.3V305H2633.79ZM2735.94 305V108.636H2796.67V144.432H2798.71C2802.29 131.477 2808.13 121.847 2816.23 115.54C2824.32 109.148 2833.74 105.952 2844.48 105.952C2847.38 105.952 2850.36 106.165 2853.43 106.591C2856.5 106.932 2859.35 107.486 2861.99 108.253V162.585C2859.01 161.562 2855.09 160.753 2850.23 160.156C2845.46 159.56 2841.2 159.261 2837.45 159.261C2830.03 159.261 2823.34 160.923 2817.38 164.247C2811.5 167.486 2806.85 172.045 2803.44 177.926C2800.12 183.722 2798.46 190.54 2798.46 198.381V305H2735.94ZM2887.32 305V108.636H2946.76V144.688H2948.94C2953.03 132.756 2959.93 123.338 2969.65 116.435C2979.36 109.531 2990.95 106.08 3004.42 106.08C3018.06 106.08 3029.73 109.574 3039.45 116.562C3049.16 123.551 3055.34 132.926 3057.98 144.688H3060.03C3063.69 133.011 3070.85 123.679 3081.51 116.69C3092.16 109.616 3104.73 106.08 3119.22 106.08C3137.8 106.08 3152.88 112.045 3164.48 123.977C3176.07 135.824 3181.86 152.102 3181.86 172.812V305H3119.35V187.131C3119.35 177.33 3116.83 169.872 3111.81 164.759C3106.78 159.56 3100.26 156.96 3092.25 156.96C3083.64 156.96 3076.86 159.773 3071.92 165.398C3067.06 170.937 3064.63 178.395 3064.63 187.77V305H3004.55V186.491C3004.55 177.372 3002.08 170.17 2997.13 164.886C2992.19 159.602 2985.67 156.96 2977.57 156.96C2972.12 156.96 2967.3 158.281 2963.13 160.923C2958.95 163.48 2955.67 167.145 2953.28 171.918C2950.98 176.69 2949.83 182.315 2949.83 188.793V305H2887.32ZM3275.8 308.324C3263.27 308.324 3252.15 306.236 3242.44 302.06C3232.81 297.798 3225.18 291.406 3219.55 282.884C3214.01 274.276 3211.24 263.494 3211.24 250.54C3211.24 239.631 3213.16 230.426 3217 222.926C3220.83 215.426 3226.12 209.332 3232.85 204.645C3239.58 199.957 3247.34 196.42 3256.12 194.034C3264.89 191.562 3274.27 189.901 3284.24 189.048C3295.41 188.026 3304.4 186.96 3311.22 185.852C3318.03 184.659 3322.98 182.997 3326.04 180.866C3329.2 178.651 3330.77 175.54 3330.77 171.534V170.895C3330.77 164.332 3328.52 159.261 3324 155.682C3319.48 152.102 3313.39 150.312 3305.72 150.312C3297.45 150.312 3290.8 152.102 3285.77 155.682C3280.75 159.261 3277.55 164.205 3276.19 170.511L3218.53 168.466C3220.24 156.534 3224.62 145.881 3231.7 136.506C3238.86 127.045 3248.66 119.631 3261.1 114.261C3273.63 108.807 3288.67 106.08 3306.23 106.08C3318.76 106.08 3330.31 107.571 3340.87 110.554C3351.44 113.452 3360.65 117.713 3368.49 123.338C3376.33 128.878 3382.38 135.696 3386.64 143.793C3390.99 151.889 3393.16 161.136 3393.16 171.534V305H3334.35V277.642H3332.82C3329.33 284.29 3324.85 289.915 3319.4 294.517C3314.03 299.119 3307.68 302.571 3300.35 304.872C3293.1 307.173 3284.92 308.324 3275.8 308.324ZM3295.11 267.415C3301.84 267.415 3307.89 266.051 3313.26 263.324C3318.72 260.597 3323.06 256.847 3326.3 252.074C3329.54 247.216 3331.16 241.591 3331.16 235.199V216.534C3329.37 217.472 3327.2 218.324 3324.64 219.091C3322.17 219.858 3319.44 220.582 3316.46 221.264C3313.47 221.946 3310.41 222.543 3307.25 223.054C3304.1 223.565 3301.07 224.034 3298.18 224.46C3292.29 225.398 3287.27 226.847 3283.09 228.807C3279 230.767 3275.85 233.324 3273.63 236.477C3271.5 239.545 3270.43 243.21 3270.43 247.472C3270.43 253.949 3272.74 258.892 3277.34 262.301C3282.02 265.71 3287.95 267.415 3295.11 267.415Z" fill="#ffffff"/>
<path fill-rule="evenodd" clip-rule="evenodd" d="M315 23H0V71.9896H52.4892V280.786H0V325.119H315V253.009C315 229.306 307.982 200.266 294.819 180.541L289.321 172.295C305.977 151.115 315 130.842 315 103.938V23ZM118.271 76.8661V274.766H189.773C205.362 274.766 218.02 272.447 227.747 267.808C237.474 263.17 244.592 256.889 249.101 248.965C253.61 241.042 255.864 232.119 255.864 222.199C255.864 211.763 253.803 202.937 249.68 195.722C245.558 188.507 240.437 182.967 234.317 179.101C228.198 175.236 222.11 173.11 216.055 172.724V170.791C221.724 169.245 226.974 166.862 231.805 163.64C236.701 160.419 240.63 156.039 243.593 150.499C246.621 144.959 248.134 137.937 248.134 129.433C248.134 119.77 245.944 110.977 241.564 103.053C237.184 95.0649 230.517 88.7195 221.563 84.0168C212.609 79.2497 201.239 76.8661 187.454 76.8661H118.271ZM189.773 253.507H142.234V184.706H190.933C199.565 184.706 207.037 186.445 213.35 189.924C219.662 193.338 224.526 197.912 227.94 203.646C231.354 209.315 233.061 215.499 233.061 222.199C233.061 230.895 229.744 238.304 223.109 244.424C216.538 250.479 205.426 253.507 189.773 253.507ZM186.681 163.834H142.234V98.1249H187.454C200.595 98.1249 210.193 101.185 216.248 107.305C222.304 113.36 225.331 120.736 225.331 129.433C225.331 136.391 223.592 142.446 220.113 147.6C216.699 152.753 212.061 156.747 206.199 159.582C200.402 162.416 193.896 163.834 186.681 163.834Z" fill="#ffffff"/>
</svg>